<svg width="32" height="32" viewBox="0 0 32 32" fill="none" xmlns="http://www.w3.org/2000/svg">
<g clip-path="url(#clip0_57_12)">
<path d="M9.98367 0.00811109C10.1288 0.00788733 10.2739 0.00763321 10.419 0.00735128C10.8109 0.00669525 11.2028 0.00651693 11.5947 0.00646916C11.8403 0.00641589 12.0858 0.00625612 12.3314 0.00605877C13.19 0.00536921 14.0486 0.00506308 14.9071 0.00512196C15.7043 0.00516676 16.5014 0.00437972 17.2986 0.00320006C17.9856 0.00222004 18.6726 0.00182356 19.3596 0.00187112C19.7687 0.00189005 20.1779 0.00168334 20.587 0.000887311C20.9724 0.000158047 21.3577 0.000163076 21.743 0.000701914C21.8833 0.000779192 22.0236 0.000608434 22.164 0.000152416C23.3226 -0.00336467 24.4756 0.0524172 25.6054 0.331575C25.7032 0.355411 25.7032 0.355411 25.8029 0.379729C27.7026 0.868007 29.5402 2.05274 30.5622 3.75172C31.714 5.71566 31.9926 7.73572 31.9919 9.98067C31.9921 10.1257 31.9924 10.2708 31.9926 10.4158C31.9933 10.8076 31.9935 11.1995 31.9935 11.5913C31.9936 11.8367 31.9937 12.0822 31.9939 12.3277C31.9946 13.186 31.9949 14.0443 31.9949 14.9027C31.9948 15.6996 31.9956 16.4965 31.9968 17.2934C31.9978 17.9802 31.9982 18.667 31.9981 19.3538C31.9981 19.7628 31.9983 20.1718 31.9991 20.5809C31.9998 20.9661 31.9998 21.3512 31.9993 21.7364C31.9992 21.8767 31.9994 22.017 31.9998 22.1573C32.0034 23.3156 31.9476 24.4683 31.6683 25.5977C31.6524 25.6629 31.6365 25.728 31.6202 25.7952C31.1317 27.6943 29.9466 29.5313 28.2472 30.553C26.286 31.7025 24.2131 31.9953 21.9726 31.9919C21.8281 31.9923 21.6837 31.9927 21.5393 31.9931C21.151 31.9941 20.7628 31.9941 20.3746 31.994C20.0484 31.9939 19.7222 31.9942 19.396 31.9946C18.6252 31.9954 17.8545 31.9955 17.0837 31.995C16.2934 31.9946 15.5031 31.9955 14.7129 31.9971C14.03 31.9984 13.3472 31.9988 12.6643 31.9986C12.2584 31.9985 11.8525 31.9986 11.4466 31.9997C8.07947 32.0076 4.92207 31.8821 2.35731 29.4052C0.404622 27.401 0.00728437 24.6893 0.00811409 22.0097C0.00789026 21.8647 0.00763607 21.7196 0.00735405 21.5746C0.00669783 21.1828 0.00651987 20.7909 0.00647208 20.3991C0.00641879 20.1537 0.00625813 19.9082 0.00606073 19.6627C0.00537096 18.8044 0.00506517 17.9461 0.00512406 17.0877C0.00516888 16.2908 0.00438176 15.4939 0.00320174 14.697C0.00222143 14.0102 0.00182437 13.3234 0.00187195 12.6366C0.00189088 12.2276 0.00168484 11.8186 0.000888573 11.4095C0.00015909 11.0243 0.000163836 10.6392 0.000702835 10.254C0.000780137 10.1137 0.000608615 9.97338 0.000152461 9.83309C-0.00336568 8.67484 0.0524335 7.5221 0.331675 6.39266C0.347571 6.32751 0.363466 6.26237 0.379844 6.19525C0.867082 4.30071 2.04998 2.45281 3.75285 1.43741C5.71871 0.28702 7.73705 0.00741585 9.98367 0.00811109ZM10.4321 8.40019C10.3732 8.45942 10.3143 8.51865 10.2536 8.57967C10.0666 8.76778 9.88051 8.95666 9.6944 9.14557C9.56731 9.27374 9.44018 9.40186 9.31299 9.52993C9.00235 9.84293 8.69236 10.1566 8.38287 10.4707C8.17326 10.3734 8.03725 10.2822 7.85546 10.1301C7.56511 9.88923 7.34881 9.84615 6.97333 9.85305C6.64811 9.89488 6.40813 10.0398 6.193 10.2846C5.99877 10.5776 5.9586 10.8474 5.95351 11.1942C6.07694 11.7304 6.57688 12.1268 6.94999 12.5004C7.03757 12.5907 7.03757 12.5907 7.12691 12.6828C7.4871 13.0447 7.79558 13.3472 8.32482 13.3983C8.37016 13.3915 8.4155 13.3846 8.46222 13.3776C8.50775 13.3721 8.55328 13.3666 8.60019 13.361C8.99435 13.2262 9.29686 12.9356 9.58754 12.6476C9.62294 12.6127 9.65833 12.5778 9.6948 12.5419C9.81048 12.4276 9.9256 12.3128 10.0407 12.198C10.1215 12.1176 10.2024 12.0373 10.2832 11.957C10.4522 11.789 10.6208 11.6207 10.7892 11.4523C11.0044 11.2371 11.2206 11.023 11.437 10.8092C11.6042 10.6438 11.7707 10.4776 11.9369 10.3113C12.0163 10.2321 12.096 10.1532 12.1759 10.0745C12.2877 9.9641 12.3986 9.85282 12.5093 9.74127C12.5725 9.67834 12.6356 9.61542 12.7007 9.55058C12.9213 9.28 13.0671 9.00104 13.1089 8.64865C13.0611 8.19955 12.9084 7.92867 12.5648 7.6338C11.6995 7.11019 11.0078 7.81288 10.4321 8.40019ZM15.5286 10.3354C15.3536 10.627 15.3047 10.8783 15.3279 11.2173C15.4269 11.5665 15.5713 11.7705 15.8553 11.9965C16.1368 12.1462 16.3392 12.1972 16.6533 12.1988C16.7628 12.1996 16.7628 12.1996 16.8744 12.2004C16.9944 12.2007 16.9944 12.2007 17.1167 12.201C17.201 12.2015 17.2853 12.202 17.3722 12.2025C17.6517 12.204 17.9313 12.2048 18.2109 12.2056C18.3063 12.2059 18.4018 12.2062 18.5001 12.2065C18.9532 12.2079 19.4063 12.209 19.8595 12.2096C20.3816 12.2103 20.9038 12.2123 21.4259 12.2153C21.8788 12.2178 22.3317 12.2187 22.7847 12.219C22.977 12.2194 23.1693 12.2202 23.3616 12.2216C23.631 12.2235 23.9003 12.2234 24.1697 12.2229C24.2489 12.2238 24.3281 12.2248 24.4097 12.2258C24.8802 12.2225 25.2425 12.1634 25.6334 11.8892C25.9412 11.5657 26.0355 11.3028 26.0272 10.8533C25.9926 10.5843 25.8949 10.3686 25.7081 10.1721C25.2467 9.83812 24.8628 9.83069 24.3037 9.83482C24.2162 9.8343 24.1287 9.83377 24.0385 9.83324C23.7501 9.83192 23.4618 9.83279 23.1734 9.8338C22.9727 9.83373 22.7719 9.83331 22.5711 9.83293C22.1507 9.83239 21.7303 9.8331 21.3099 9.83453C20.8246 9.83616 20.3393 9.83563 19.854 9.83398C19.4364 9.83263 19.0188 9.83244 18.6012 9.83322C18.3522 9.83368 18.1032 9.83363 17.8542 9.83276C17.5766 9.832 17.299 9.83316 17.0214 9.83482C16.8983 9.83391 16.8983 9.83391 16.7727 9.83299C16.1951 9.8394 15.9485 9.93827 15.5286 10.3354ZM10.5829 19.4608C10.4599 19.5864 10.3368 19.7118 10.2136 19.8373C10.0208 20.0353 9.82818 20.2335 9.63598 20.4321C9.44992 20.624 9.26273 20.8147 9.07539 21.0053C9.0179 21.0654 8.96041 21.1255 8.90117 21.1874C8.84732 21.242 8.79347 21.2966 8.73799 21.3528C8.69092 21.4014 8.64385 21.4499 8.59535 21.5C8.45755 21.5944 8.45755 21.5944 8.30438 21.5835C8.07415 21.4826 7.90268 21.3069 7.71077 21.1464C7.4202 20.9737 7.16304 20.976 6.83593 21.0213C6.49248 21.1229 6.23897 21.3608 6.05532 21.6635C5.98715 21.8334 5.96838 21.9623 5.96518 22.1449C5.96306 22.1994 5.96094 22.2539 5.95876 22.31C6.06548 22.8687 6.61294 23.2839 6.99666 23.666C7.09146 23.7626 7.09146 23.7626 7.18817 23.8611C7.24964 23.9226 7.3111 23.9841 7.37443 24.0475C7.43002 24.1033 7.4856 24.1591 7.54287 24.2165C7.87582 24.4943 8.17958 24.5434 8.6069 24.5059C8.95276 24.3609 9.18699 24.1785 9.4519 23.9153C9.48875 23.879 9.5256 23.8426 9.56357 23.8052C9.68428 23.6859 9.80415 23.5658 9.92397 23.4456C10.0082 23.3618 10.0924 23.278 10.1766 23.1942C10.3527 23.0189 10.5283 22.8431 10.7037 22.667C10.9278 22.4422 11.153 22.2185 11.3786 21.9951C11.5527 21.8225 11.7261 21.6491 11.8993 21.4755C11.982 21.3928 12.065 21.3103 12.1482 21.228C12.2647 21.1127 12.3803 20.9964 12.4956 20.8798C12.5614 20.814 12.6272 20.7482 12.695 20.6804C12.9134 20.4136 13.0697 20.1363 13.1036 19.786C13.0498 19.4294 12.9597 19.1836 12.7142 18.9068C11.8232 18.2952 11.2384 18.779 10.5829 19.4608ZM15.5239 21.4964C15.3538 21.843 15.2512 22.1855 15.3775 22.5643C15.5729 22.9344 15.8285 23.1796 16.224 23.3114C16.3443 23.3186 16.4648 23.3215 16.5853 23.3219C16.6598 23.3223 16.7342 23.3228 16.8109 23.3232C16.8925 23.3233 16.9741 23.3234 17.0581 23.3235C17.1441 23.3238 17.2301 23.3242 17.3187 23.3246C17.6038 23.3257 17.889 23.3262 18.1741 23.3266C18.322 23.3269 18.4698 23.3272 18.6177 23.3276C19.0297 23.3284 19.4418 23.329 19.8539 23.3293C20.3863 23.3296 20.9188 23.3309 21.4513 23.3331C21.8631 23.3347 22.275 23.3354 22.6868 23.3355C22.9327 23.3356 23.1785 23.3362 23.4244 23.3374C23.6988 23.3387 23.9732 23.3385 24.2476 23.338C24.3287 23.3387 24.4099 23.3394 24.4935 23.3401C24.9626 23.3375 25.3222 23.3082 25.6816 22.9728C25.9678 22.5986 26.0546 22.3663 26.0068 21.893C25.868 21.4998 25.6631 21.3111 25.3347 21.0718C25.117 20.9992 24.9766 20.9872 24.7499 20.9861C24.6756 20.9856 24.6012 20.9851 24.5247 20.9845C24.4432 20.9843 24.3617 20.9841 24.2778 20.9839C24.149 20.9832 24.149 20.9832 24.0176 20.9824C23.7328 20.9809 23.448 20.9801 23.1632 20.9793C23.066 20.979 22.9689 20.9787 22.8687 20.9784C22.4074 20.977 21.9461 20.9759 21.4849 20.9753C20.953 20.9746 20.4212 20.9726 19.8894 20.9696C19.4779 20.9673 19.0664 20.9662 18.6549 20.966C18.4093 20.9658 18.1638 20.965 17.9182 20.9633C17.644 20.9614 17.3698 20.9615 17.0956 20.962C17.0147 20.9611 16.9339 20.9601 16.8505 20.9591C16.2736 20.9631 15.9193 21.0491 15.5239 21.4964Z" fill="url(#paint0_linear_57_12)"/>
</g>
<defs>
<linearGradient id="paint0_linear_57_12" x1="16" y1="0" x2="16" y2="32" gradientUnits="userSpaceOnUse">
<stop stop-color="#0579FA"/>
<stop offset="1" stop-color="#034EA2"/>
</linearGradient>
<clipPath id="clip0_57_12">
<rect width="32" height="32" fill="white"/>
</clipPath>
</defs>
</svg>
